<svg width="16" height="12" viewBox="0 0 16 12" fill="none" xmlns="http://www.w3.org/2000/svg">
<g clip-path="url(#clip0)">
<path d="M0 0H16V12H0V0Z" fill="#000066"/>
<path d="M0 0V0.700001L7.675 6.25001H8.6425V5.55001L0.9675 0H0H0ZM8.6425 0V0.700001L0.9675 6.25001H0V5.55001L7.675 0H8.6425ZM3.6 0V6.25001H5.04V0H3.6ZM0 2.0825V4.16751H8.6425V2.0825H0Z" fill="white"/>
<path d="M0 2.5V3.75001H8.6425V2.5H0ZM3.89 0V6.25001H4.75V0H3.8875H3.89ZM0 6.25001L2.88 4.16751H3.525L0.645 6.25001H0H0ZM0 0L2.88 2.0825H2.2375L0 0.465001V0V0ZM5.1175 2.0825L7.9975 0H8.6425L5.7625 2.0825H5.1175ZM8.6425 6.25001L5.7625 4.16751H6.405L8.6425 5.78501V6.25001Z" fill="#CC0000"/>
<path d="M7.49501 9.81249L6.40251 9.90749L6.55251 10.9925L5.80001 10.2L5.04751 10.9925L5.19751 9.90749L4.10501 9.81249L5.04751 9.25499L4.44001 8.34249L5.46501 8.72999L5.80001 7.68749L6.13751 8.72999L7.16251 8.34249L6.55501 9.25499L7.49501 9.81249ZM12.165 10.8125L11.9 10.4175L12.345 10.585L12.49 10.1325L12.635 10.585L13.08 10.4175L12.8175 10.8125L13.2275 11.055L12.7525 11.0975L12.8175 11.57L12.4925 11.2225L12.1625 11.57L12.2275 11.0975L11.7525 11.0575L12.165 10.8125ZM12.1625 3.75999L11.9 3.36499L12.345 3.53249L12.49 3.07999L12.635 3.53249L13.08 3.36499L12.8175 3.75999L13.2275 4.00499L12.7525 4.04499L12.8175 4.51749L12.4925 4.17249L12.1625 4.51499L12.2275 4.04499L11.7525 4.00499L12.1625 3.75999ZM9.52001 6.62499L9.25751 6.22999L9.70251 6.39749L9.84751 5.94499L9.99501 6.39749L10.44 6.22999L10.175 6.62499L10.585 6.86749L10.11 6.90999L10.1775 7.38249L9.84751 7.03499L9.52251 7.38249L9.58501 6.90999L9.11001 6.86999L9.52001 6.62499ZM14.5175 5.91999L14.25 5.52499L14.695 5.69249L14.84 5.23999L14.9875 5.69249L15.4325 5.52499L15.17 5.91999L15.5775 6.16249L15.1025 6.20499L15.1675 6.67499L14.8425 6.32999L14.5125 6.67499L14.5775 6.20499L14.1025 6.16249L14.5175 5.91999ZM13.55 7.99999L13.2925 8.16249L13.365 7.86499L13.1325 7.66999L13.435 7.64499L13.55 7.36499L13.6675 7.64749L13.97 7.66999L13.7375 7.86499L13.81 8.16249" fill="white"/>
</g>
<defs>
<clipPath id="clip0">
<rect width="16" height="12" fill="white"/>
</clipPath>
</defs>
</svg>
