<svg width="24" height="20" viewBox="0 0 24 20" fill="none" xmlns="http://www.w3.org/2000/svg">
<path d="M22.8019 4.29746H5.69468L5.33222 1.94278C5.15881 0.817237 4.26047 0 3.19565 0H0.354742C0.158763 0 0 0.164389 0 0.366856C0 0.569528 0.158763 0.733712 0.354742 0.733712H3.19565C3.90949 0.733712 4.51326 1.29607 4.63144 2.06336L7.0115 17.5323C7.07406 18.0216 7.47453 18.3893 7.95181 18.3952H8.60606C8.77591 19.2861 9.53073 20 10.4336 20C11.3367 20 12.0913 19.2861 12.2612 18.3952H17.2038C17.3737 19.2861 18.1285 19.9963 19.0314 19.9963C20.059 19.9963 20.895 19.0999 20.895 18.0001C20.895 16.9004 20.0588 16.0086 19.0314 16.0086C18.1134 16.0086 17.3489 16.7186 17.1961 17.6619H12.2689C12.1163 16.7186 11.3518 16.0111 10.4336 16.0111C9.51568 16.0111 8.75117 16.7182 8.59854 17.6615H7.96131C7.83462 17.6584 7.7293 17.5595 7.71366 17.4293C7.71347 17.4273 7.71307 17.4347 7.71267 17.4322L7.27063 14.5694H19.4204C20.3284 14.568 21.1147 13.9164 21.3136 13.0001L23.1475 4.76033C23.1719 4.64875 23.1469 4.53186 23.0794 4.44117C23.0127 4.35232 22.9106 4.2995 22.8019 4.29746Z" fill="white"/>
</svg>
