<svg width="40" height="34" viewBox="0 0 40 34" fill="none" xmlns="http://www.w3.org/2000/svg">
<path d="M38.7632 7.30568H9.68096L9.06477 3.30273C8.76997 1.3893 7.2428 0 5.4326 0H0.603062C0.269897 0 0 0.279462 0 0.623655C0 0.968197 0.269897 1.24731 0.603062 1.24731H5.4326C6.64613 1.24731 7.67255 2.20333 7.87346 3.50771L11.9196 29.8049C12.0259 30.6367 12.7067 31.2618 13.5181 31.2719H14.6303C14.9191 32.7864 16.2022 34 17.7372 34C19.2724 34 20.5553 32.7864 20.844 31.2719H29.2465C29.5352 32.7864 30.8184 33.9937 32.3533 33.9937C34.1003 33.9937 35.5214 32.4697 35.5214 30.6002C35.5214 28.7306 34.0999 27.2146 32.3533 27.2146C30.7928 27.2146 29.4932 28.4216 29.2334 30.0252H20.8571C20.5977 28.4216 19.298 27.2188 17.7372 27.2188C16.1767 27.2188 14.877 28.4209 14.6175 30.0245H13.5342C13.3189 30.0193 13.1398 29.8512 13.1132 29.6299C13.1129 29.6264 13.1122 29.6389 13.1115 29.6348L12.3601 24.768H33.0146C34.5583 24.7656 35.895 23.6578 36.2332 22.1001L39.3508 8.09255C39.3922 7.90288 39.3498 7.70416 39.235 7.54999C39.1216 7.39895 38.948 7.30916 38.7632 7.30568Z" fill="#897092"/>
</svg>
