<svg width="24" height="24" viewBox="0 0 24 24" fill="none" xmlns="http://www.w3.org/2000/svg">
<path d="M0.90566 6.1132H23.0943C23.5943 6.1132 24 5.70746 24 5.20754C24 4.70762 23.5943 4.30188 23.0943 4.30188H0.90566C0.405736 4.30188 0 4.70762 0 5.20754C0 5.70746 0.405736 6.1132 0.90566 6.1132Z" fill="white"/>
<path d="M0.90566 12.9057H23.0943C23.5943 12.9057 24 12.4999 24 12C24 11.5001 23.5943 11.0943 23.0943 11.0943H0.90566C0.405736 11.0943 0 11.5001 0 12C0 12.4999 0.405736 12.9057 0.90566 12.9057Z" fill="white"/>
<path d="M0.90566 19.6981H23.0943C23.5943 19.6981 24 19.2924 24 18.7924C24 18.2925 23.5943 17.8868 23.0943 17.8868H0.90566C0.405736 17.8868 0 18.2925 0 18.7924C0 19.2924 0.405736 19.6981 0.90566 19.6981Z" fill="white"/>
</svg>
