<svg width="19" height="18" viewBox="0 0 19 18" fill="none" xmlns="http://www.w3.org/2000/svg">
<path d="M15.8486 1.36163C16.6404 1.72238 17.3795 2.17112 17.9427 2.82662C18.2902 3.24016 18.4706 3.71529 18.4706 4.27841C18.4706 4.87232 18.4706 5.46623 18.4706 6.06015C18.453 6.83444 17.9603 7.32716 17.2036 7.32716C16.724 7.34476 16.2489 7.32716 15.7518 7.32716C15.2898 7.32716 14.8279 7.32716 14.3352 7.32716C13.5125 7.32716 13.033 6.84763 13.033 6.02495C13.033 5.43104 13.0154 4.85472 13.0506 4.26081C13.0506 4.09803 13.0022 4.04524 12.8702 3.97925C12.1927 3.69769 11.502 3.56571 10.7937 3.48652C9.35951 3.33695 7.94292 3.37214 6.54392 3.68449C6.24917 3.75049 5.95001 3.88247 5.65525 3.94846C5.50567 3.99685 5.45728 4.08044 5.45728 4.24321C5.45728 4.83713 5.45728 5.43104 5.45728 6.02495C5.45728 6.81684 4.96455 7.30957 4.19027 7.29197C3.23561 7.29197 2.27655 7.29197 1.32189 7.29197C0.530003 7.29197 0.0372749 6.79924 0.0196775 5.98976C0.00208005 5.44424 0.0504729 4.90312 0.00207998 4.3576C-0.0287155 3.56571 0.283639 2.9586 0.859955 2.44388C1.66944 1.73558 2.64169 1.29124 3.66234 0.926098C5.93681 0.134213 8.29487 -0.142946 10.7145 0.0682228C12.4875 0.244197 14.2032 0.604944 15.8486 1.36163Z" fill="white"/>
<path d="M5.67736 18C6.3188 18 6.8388 17.48 6.8388 16.8385C6.8388 16.1971 6.3188 15.6771 5.67736 15.6771C5.03592 15.6771 4.51593 16.1971 4.51593 16.8385C4.51593 17.48 5.03592 18 5.67736 18Z" fill="white"/>
<path d="M5.67736 10.8951C6.3188 10.8951 6.8388 10.3751 6.8388 9.73367C6.8388 9.09223 6.3188 8.57224 5.67736 8.57224C5.03592 8.57224 4.51593 9.09223 4.51593 9.73367C4.51593 10.3751 5.03592 10.8951 5.67736 10.8951Z" fill="white"/>
<path d="M5.67736 14.4453C6.3188 14.4453 6.8388 13.9253 6.8388 13.2839C6.8388 12.6425 6.3188 12.1225 5.67736 12.1225C5.03592 12.1225 4.51593 12.6425 4.51593 13.2839C4.51593 13.9253 5.03592 14.4453 5.67736 14.4453Z" fill="white"/>
<path d="M9.23186 18C9.8733 18 10.3933 17.48 10.3933 16.8385C10.3933 16.1971 9.8733 15.6771 9.23186 15.6771C8.59042 15.6771 8.07043 16.1971 8.07043 16.8385C8.07043 17.48 8.59042 18 9.23186 18Z" fill="white"/>
<path d="M9.23186 10.8951C9.8733 10.8951 10.3933 10.3751 10.3933 9.73367C10.3933 9.09223 9.8733 8.57224 9.23186 8.57224C8.59042 8.57224 8.07043 9.09223 8.07043 9.73367C8.07043 10.3751 8.59042 10.8951 9.23186 10.8951Z" fill="white"/>
<path d="M9.23186 14.4497C9.8733 14.4497 10.3933 13.9297 10.3933 13.2883C10.3933 12.6469 9.8733 12.1269 9.23186 12.1269C8.59042 12.1269 8.07043 12.6469 8.07043 13.2883C8.07043 13.9297 8.59042 14.4497 9.23186 14.4497Z" fill="white"/>
<path d="M12.7866 10.8951C13.4281 10.8951 13.948 10.3751 13.948 9.73367C13.948 9.09223 13.4281 8.57224 12.7866 8.57224C12.1452 8.57224 11.6252 9.09223 11.6252 9.73367C11.6252 10.3751 12.1452 10.8951 12.7866 10.8951Z" fill="white"/>
<path d="M12.7866 14.4497C13.4281 14.4497 13.948 13.9297 13.948 13.2883C13.948 12.6469 13.4281 12.1269 12.7866 12.1269C12.1452 12.1269 11.6252 12.6469 11.6252 13.2883C11.6252 13.9297 12.1452 14.4497 12.7866 14.4497Z" fill="white"/>
<path d="M12.7866 18C13.4281 18 13.948 17.48 13.948 16.8385C13.948 16.1971 13.4281 15.6771 12.7866 15.6771C12.1452 15.6771 11.6252 16.1971 11.6252 16.8385C11.6252 17.48 12.1452 18 12.7866 18Z" fill="white"/>
</svg>
