<svg width="35" height="34" viewBox="0 0 35 34" fill="none" xmlns="http://www.w3.org/2000/svg">
<g clip-path="url(#clip0)">
<path d="M29.9362 2.57198C31.432 3.25339 32.828 4.101 33.8917 5.33917C34.5482 6.1203 34.8889 7.01777 34.8889 8.08144C34.8889 9.20328 34.8889 10.3251 34.8889 11.4469C34.8556 12.9095 33.9249 13.8402 32.4956 13.8402C31.5898 13.8734 30.6924 13.8402 29.7534 13.8402C28.8808 13.8402 28.0083 13.8402 27.0776 13.8402C25.5236 13.8402 24.6178 12.9344 24.6178 11.3805C24.6178 10.2586 24.5846 9.17004 24.6511 8.0482C24.6511 7.74073 24.5597 7.64102 24.3104 7.51637C23.0307 6.98453 21.726 6.73524 20.3881 6.58566C17.6791 6.30312 15.0033 6.3696 12.3607 6.9596C11.804 7.08425 11.2389 7.33355 10.6821 7.4582C10.3996 7.54961 10.3082 7.70749 10.3082 8.01496C10.3082 9.1368 10.3082 10.2586 10.3082 11.3805C10.3082 12.8763 9.37749 13.807 7.91495 13.7737C6.1117 13.7737 4.30015 13.7737 2.4969 13.7737C1.00112 13.7737 0.0704082 12.843 0.0371686 11.314C0.00392899 10.2836 0.0953377 9.26145 0.00392886 8.23102C-0.0542404 6.73524 0.535762 5.58847 1.62436 4.61621C3.15338 3.27832 4.98987 2.43902 6.91776 1.7493C11.214 0.253514 15.6681 -0.27001 20.2385 0.128865C23.5874 0.461261 26.8283 1.14267 29.9362 2.57198Z" fill="#897092"/>
<path d="M10.7237 34C11.9353 34 12.9175 33.0178 12.9175 31.8062C12.9175 30.5946 11.9353 29.6124 10.7237 29.6124C9.51211 29.6124 8.52991 30.5946 8.52991 31.8062C8.52991 33.0178 9.51211 34 10.7237 34Z" fill="#897092"/>
<path d="M10.7237 20.5795C11.9353 20.5795 12.9175 19.5973 12.9175 18.3857C12.9175 17.1741 11.9353 16.1919 10.7237 16.1919C9.51211 16.1919 8.52991 17.1741 8.52991 18.3857C8.52991 19.5973 9.51211 20.5795 10.7237 20.5795Z" fill="#897092"/>
<path d="M10.7237 27.2856C11.9353 27.2856 12.9175 26.3034 12.9175 25.0918C12.9175 23.8802 11.9353 22.898 10.7237 22.898C9.51211 22.898 8.52991 23.8802 8.52991 25.0918C8.52991 26.3034 9.51211 27.2856 10.7237 27.2856Z" fill="#897092"/>
<path d="M17.4381 34C18.6497 34 19.6319 33.0178 19.6319 31.8062C19.6319 30.5946 18.6497 29.6124 17.4381 29.6124C16.2265 29.6124 15.2443 30.5946 15.2443 31.8062C15.2443 33.0178 16.2265 34 17.4381 34Z" fill="#897092"/>
<path d="M17.4381 20.5795C18.6497 20.5795 19.6319 19.5973 19.6319 18.3857C19.6319 17.1741 18.6497 16.1919 17.4381 16.1919C16.2265 16.1919 15.2443 17.1741 15.2443 18.3857C15.2443 19.5973 16.2265 20.5795 17.4381 20.5795Z" fill="#897092"/>
<path d="M17.4381 27.2939C18.6497 27.2939 19.6319 26.3117 19.6319 25.1001C19.6319 23.8885 18.6497 22.9063 17.4381 22.9063C16.2265 22.9063 15.2443 23.8885 15.2443 25.1001C15.2443 26.3117 16.2265 27.2939 17.4381 27.2939Z" fill="#897092"/>
<path d="M24.1525 20.5795C25.3642 20.5795 26.3464 19.5973 26.3464 18.3857C26.3464 17.1741 25.3642 16.1919 24.1525 16.1919C22.9409 16.1919 21.9587 17.1741 21.9587 18.3857C21.9587 19.5973 22.9409 20.5795 24.1525 20.5795Z" fill="#897092"/>
<path d="M24.1525 27.2939C25.3642 27.2939 26.3464 26.3117 26.3464 25.1001C26.3464 23.8885 25.3642 22.9063 24.1525 22.9063C22.9409 22.9063 21.9587 23.8885 21.9587 25.1001C21.9587 26.3117 22.9409 27.2939 24.1525 27.2939Z" fill="#897092"/>
<path d="M24.1525 34C25.3642 34 26.3464 33.0178 26.3464 31.8062C26.3464 30.5946 25.3642 29.6124 24.1525 29.6124C22.9409 29.6124 21.9587 30.5946 21.9587 31.8062C21.9587 33.0178 22.9409 34 24.1525 34Z" fill="#897092"/>
</g>
<defs>
<clipPath id="clip0">
<rect width="34.8889" height="34" fill="white"/>
</clipPath>
</defs>
</svg>
