<svg width="19" height="18" viewBox="0 0 19 18" fill="none" xmlns="http://www.w3.org/2000/svg">
<path d="M0.430395 17.5687C0.719108 17.8574 1.09693 18 1.47475 18C1.85257 18 2.23039 17.8574 2.5191 17.5687L6.66445 13.4234C7.8585 14.2539 9.30919 14.7457 10.8775 14.7457C14.9516 14.7457 18.2521 11.4451 18.2521 7.37109C18.2486 3.30059 14.948 0 10.8739 0C6.79989 0 3.4993 3.30059 3.4993 7.37109C3.4993 8.81109 3.91277 10.1513 4.62564 11.2883L0.430395 15.4836C-0.143465 16.061 -0.143465 16.9949 0.430395 17.5687ZM5.89098 7.37109C5.89098 4.61941 8.12227 2.38812 10.8739 2.38812C13.6256 2.38812 15.8569 4.61941 15.8569 7.37109C15.8569 10.1228 13.6256 12.3541 10.8739 12.3541C8.12227 12.3576 5.89098 10.1263 5.89098 7.37109Z" fill="white"/>
</svg>
