<svg width="14" height="14" viewBox="0 0 14 14" fill="none" xmlns="http://www.w3.org/2000/svg">
<path d="M0.330877 13.5734C0.552361 13.7949 0.842205 13.9043 1.13205 13.9043C1.42189 13.9043 1.71173 13.7949 1.93322 13.5734L5.11329 10.3934C6.02931 11.0305 7.1422 11.4078 8.34532 11.4078C11.4707 11.4078 14.0027 8.87578 14.0027 5.75039C14 2.62773 11.468 0.0957031 8.34259 0.0957031C5.2172 0.0957031 2.68517 2.62773 2.68517 5.75039C2.68517 6.85508 3.00236 7.8832 3.54923 8.75547L0.330877 11.9738C-0.109357 12.4168 -0.109357 13.1332 0.330877 13.5734ZM4.51993 5.75039C4.51993 3.63945 6.23165 1.92773 8.34259 1.92773C10.4535 1.92773 12.1652 3.63945 12.1652 5.75039C12.1652 7.86133 10.4535 9.57305 8.34259 9.57305C6.23165 9.57578 4.51993 7.86406 4.51993 5.75039Z" fill="#897092"/>
</svg>
