<svg width="16" height="12" viewBox="0 0 16 12" fill="none" xmlns="http://www.w3.org/2000/svg">
<g clip-path="url(#clip0)">
<path d="M0 0H16V0.9225H0V0ZM0 1.8475H16V2.77H0V1.8475ZM0 3.6925H16V4.6175H0V3.6925ZM0 5.5375H16V6.46H0V5.5375ZM0 7.385H16V8.3075H0V7.385ZM0 9.23H16V10.1525H0V9.23ZM0 11.0775H16V12H0V11.0775Z" fill="#D10B1E"/>
<path d="M0 0.922516H16V1.84502H0V0.922516ZM0 2.77002H16V3.69002H0V2.77002ZM0 4.61502H16V5.53752H0V4.61502ZM0 6.46252H16V7.38502H0V6.46252ZM0 8.30752H16V9.23002H0V8.30752ZM0 10.1525H16V11.075H0V10.1525Z" fill="white"/>
<path d="M0 0H9.12V6.4625H0V0Z" fill="#061D66"/>
<path d="M0.760001 0.277527L0.845001 0.532527H1.1125L0.897501 0.690027L0.98 0.947527L0.762501 0.787527L0.547501 0.945027L0.625001 0.690027L0.407501 0.532527H0.680001L0.760001 0.277527ZM2.28 0.277527L2.3625 0.532527H2.6325L2.415 0.690027L2.4975 0.947527L2.2825 0.787527L2.065 0.945027L2.1475 0.690027L1.9325 0.532527H2.2L2.28 0.277527ZM3.8 0.277527L3.885 0.532527H4.15L3.935 0.690027L4.0175 0.947527L3.8 0.787527L3.585 0.945027L3.6675 0.690027L3.45 0.532527H3.72L3.8 0.277527ZM5.31999 0.277527L5.40249 0.532527H5.67249L5.45499 0.690027L5.53999 0.947527L5.32249 0.787527L5.10499 0.945027L5.18999 0.690027L4.97249 0.532527H5.23999L5.31999 0.277527ZM6.83999 0.277527L6.92499 0.532527H7.19249L6.97749 0.690027L7.05999 0.947527L6.84249 0.787527L6.62749 0.945027L6.70999 0.690027L6.49499 0.532527H6.76249L6.83999 0.277527ZM8.35999 0.277527L8.44249 0.532527H8.71249L8.49499 0.690027L8.57999 0.947527L8.36249 0.787527L8.14499 0.945027L8.22999 0.690027L8.01249 0.532527H8.28249L8.35999 0.277527ZM1.52 0.922527L1.6025 1.17753H1.8725L1.655 1.33503L1.735 1.59003L1.525 1.43253L1.3075 1.59003L1.385 1.33503L1.175 1.17753H1.4425L1.52 0.922527ZM3.04 0.922527L3.125 1.17753H3.3925L3.175 1.33503L3.26 1.59003L3.0425 1.43253L2.825 1.59003L2.91 1.33503L2.6925 1.17753H2.9625L3.04 0.922527ZM4.56 0.922527L4.6425 1.17753H4.91249L4.695 1.33503L4.7775 1.59003L4.5625 1.43253L4.345 1.59003L4.4275 1.33503L4.2125 1.17753H4.48L4.56 0.922527ZM6.07999 0.922527L6.16499 1.17753H6.43249L6.21499 1.33503L6.29999 1.59003L6.08249 1.43253L5.86749 1.59003L5.94999 1.33503L5.73249 1.17753H5.99999L6.07999 0.922527ZM7.59999 0.922527L7.68249 1.17753H7.95249L7.73499 1.33503L7.81749 1.59003L7.60249 1.43253L7.38499 1.59003L7.46749 1.33503L7.25249 1.17753H7.51999L7.59999 0.922527ZM0.760001 1.56753L0.845001 1.82753H1.1125L0.897501 1.98503L0.98 2.24003L0.762501 2.08003L0.547501 2.24003L0.625001 1.98253L0.407501 1.82503H0.680001L0.760001 1.56753ZM2.28 1.56753L2.3625 1.82503H2.6325L2.415 1.98253L2.4975 2.23753L2.2825 2.07753L2.065 2.23753L2.1475 1.98003L1.9325 1.82253H2.2L2.28 1.56753ZM3.8 1.56753L3.885 1.82503H4.15L3.935 1.98253L4.0175 2.23753L3.8 2.07753L3.585 2.23753L3.6675 1.98003L3.45 1.82253H3.72L3.8 1.56753ZM5.31999 1.56753L5.40249 1.82503H5.67249L5.45499 1.98253L5.53999 2.23753L5.32249 2.07753L5.10499 2.23753L5.18999 1.98003L4.97249 1.82253H5.23999L5.31999 1.56753ZM6.83999 1.56753L6.92499 1.82503H7.19249L6.97749 1.98253L7.05999 2.23753L6.84249 2.07753L6.62749 2.23753L6.70999 1.98003L6.49499 1.82253H6.76249L6.83999 1.56753ZM8.35999 1.56753L8.44249 1.82503H8.71249L8.49499 1.98253L8.57999 2.23753L8.36249 2.07753L8.14499 2.23753L8.22999 1.98003L8.01249 1.82253H8.28249L8.35999 1.56753ZM1.52 2.21503L1.6025 2.47003H1.8725L1.655 2.62753L1.7375 2.88503L1.5225 2.72503L1.305 2.88253L1.3875 2.62753L1.1725 2.47003H1.44L1.52 2.21503ZM3.04 2.21503L3.125 2.47003H3.3925L3.175 2.62753L3.26 2.88503L3.0425 2.72503L2.825 2.88253L2.91 2.62753L2.6925 2.47003H2.9625L3.04 2.21503ZM4.56 2.21503L4.6425 2.47003H4.91249L4.695 2.62753L4.7775 2.88503L4.5625 2.72503L4.345 2.88253L4.4275 2.62753L4.2125 2.47003H4.48L4.56 2.21503ZM6.07999 2.21503L6.16499 2.47003H6.43249L6.21749 2.62753L6.29999 2.88503L6.08249 2.72503L5.86749 2.88253L5.94999 2.62753L5.73249 2.47003H5.99999L6.07999 2.21503ZM7.59999 2.21503L7.68249 2.47003H7.95249L7.73499 2.62753L7.81749 2.88503L7.59999 2.72503L7.38249 2.88253L7.46499 2.62753L7.24999 2.47003H7.51749L7.59999 2.21503ZM0.760001 2.86253L0.845001 3.11753H1.1125L0.897501 3.27503L0.98 3.53253L0.762501 3.37253L0.547501 3.53003L0.625001 3.27503L0.407501 3.11753H0.680001L0.760001 2.86253ZM2.28 2.86253L2.3625 3.11753H2.6325L2.415 3.27503L2.4975 3.53003L2.2825 3.37253L2.065 3.53003L2.1475 3.27503L1.9325 3.11753H2.2L2.28 2.86253ZM3.8 2.86253L3.885 3.11753H4.15L3.935 3.27503L4.0175 3.53253L3.8 3.37253L3.585 3.53003L3.6675 3.27503L3.45 3.11753H3.72L3.8 2.86253ZM5.31999 2.86253L5.40249 3.11753H5.67249L5.45499 3.27503L5.53999 3.53253L5.32249 3.37253L5.10499 3.53003L5.18999 3.27503L4.97249 3.11753H5.23999L5.31999 2.86253ZM6.83999 2.86253L6.92499 3.11753H7.19249L6.97499 3.27503L7.05749 3.53253L6.83999 3.37253L6.62499 3.53003L6.70749 3.27503L6.49249 3.11753H6.75999L6.83999 2.86253ZM8.35999 2.86253L8.44249 3.11753H8.71249L8.49499 3.27503L8.57999 3.53253L8.36249 3.37253L8.14499 3.53003L8.22999 3.27503L8.01249 3.11753H8.28249L8.35999 2.86253ZM1.52 3.50753L1.6025 3.76253H1.8725L1.655 3.92003L1.7375 4.17503L1.5225 4.01503L1.305 4.17503L1.3875 3.91753L1.1725 3.76003H1.44L1.52 3.50753ZM3.04 3.50753L3.125 3.76253H3.3925L3.175 3.92003L3.26 4.17503L3.0425 4.01503L2.825 4.17503L2.91 3.91753L2.6925 3.76003H2.9625L3.04 3.50753ZM4.56 3.50753L4.6425 3.76253H4.91249L4.695 3.92003L4.7775 4.17503L4.5625 4.01503L4.345 4.17503L4.4275 3.91753L4.2125 3.76003H4.48L4.56 3.50753ZM6.07999 3.50753L6.16499 3.76253H6.43249L6.21749 3.92003L6.29999 4.17503L6.08249 4.01503L5.86749 4.17503L5.94999 3.91753L5.73249 3.76003H5.99999L6.07999 3.50753ZM7.59999 3.50753L7.68249 3.76253H7.95249L7.73499 3.92003L7.81749 4.17503L7.60249 4.01503L7.38499 4.17503L7.46749 3.91753L7.25249 3.76003H7.51999L7.59999 3.50753ZM0.760001 4.15253L0.845001 4.41003H1.1125L0.897501 4.56753L0.98 4.82003L0.762501 4.66253L0.547501 4.82003L0.630001 4.56503L0.412501 4.40753H0.685001L0.760001 4.15253ZM2.28 4.15253L2.3625 4.41003H2.6325L2.415 4.56753L2.5 4.82003L2.2825 4.66253L2.065 4.82003L2.15 4.56503L1.9325 4.40753H2.2L2.28 4.15253ZM3.8 4.15253L3.885 4.41003H4.15L3.935 4.56753L4.0175 4.82003L3.8 4.66253L3.585 4.82003L3.6675 4.56503L3.45 4.40753H3.72L3.8 4.15253ZM5.31999 4.15253L5.40249 4.41003H5.67249L5.45499 4.56753L5.53999 4.82003L5.32249 4.66253L5.10499 4.82003L5.18999 4.56503L4.97249 4.40753H5.23999L5.31999 4.15253ZM6.83999 4.15253L6.92499 4.41003H7.19249L6.97749 4.56753L7.05999 4.82003L6.84249 4.66253L6.62749 4.82003L6.70999 4.56503L6.49499 4.40753H6.76249L6.83999 4.15253ZM8.35999 4.15253L8.44249 4.41003H8.71249L8.49499 4.56753L8.57999 4.82003L8.36249 4.66253L8.14499 4.82003L8.22999 4.56503L8.01249 4.40753H8.28249L8.35999 4.15253ZM1.52 4.80003L1.6025 5.05503H1.8725L1.655 5.21253L1.7375 5.47003L1.5225 5.31003L1.305 5.46753L1.3875 5.21253L1.1725 5.05503H1.44L1.52 4.80003ZM3.04 4.80003L3.125 5.05503H3.3925L3.175 5.21253L3.26 5.47003L3.0425 5.31003L2.825 5.46753L2.91 5.21253L2.6925 5.05503H2.9625L3.04 4.80003ZM4.56 4.80003L4.6425 5.05503H4.91249L4.695 5.21253L4.7775 5.47003L4.5625 5.31003L4.345 5.46753L4.4275 5.21253L4.2125 5.05503H4.48L4.56 4.80003ZM6.07999 4.80003L6.16499 5.05503H6.43249L6.21749 5.21253L6.29999 5.47003L6.08249 5.31003L5.86749 5.46753L5.94999 5.21253L5.73249 5.05503H5.99999L6.07999 4.80003ZM7.59999 4.80003L7.68249 5.05503H7.95249L7.73499 5.21253L7.81749 5.47003L7.60249 5.31003L7.38499 5.46753L7.46749 5.21253L7.25249 5.05503H7.51999L7.59999 4.80003ZM0.760001 5.44753L0.845001 5.70253H1.1125L0.897501 5.86003L0.98 6.11503L0.762501 5.95753L0.547501 6.11503L0.630001 5.85753L0.412501 5.70003H0.685001L0.760001 5.44753ZM2.28 5.44753L2.3625 5.70253H2.6325L2.415 5.86003L2.5 6.11503L2.2825 5.95753L2.065 6.11503L2.15 5.85753L1.9325 5.70003H2.2L2.28 5.44753ZM3.8 5.44753L3.885 5.70253H4.15L3.94 5.86003L4.0225 6.11503L3.805 5.95753L3.59 6.11503L3.6725 5.85753L3.45 5.70003H3.72L3.8 5.44753ZM5.31999 5.44753L5.40249 5.70253H5.67249L5.45499 5.86003L5.53999 6.11503L5.32249 5.95753L5.10499 6.11503L5.18999 5.85753L4.97249 5.70003H5.23999L5.31999 5.44753ZM6.83999 5.44753L6.92499 5.70253H7.19249L6.97749 5.86003L7.05999 6.11503L6.84249 5.95753L6.62749 6.11503L6.70999 5.85753L6.49499 5.70003H6.76249L6.83999 5.44753ZM8.35999 5.44753L8.44249 5.70253H8.71249L8.49499 5.86003L8.57999 6.11503L8.36249 5.95753L8.14499 6.11503L8.22999 5.85753L8.01249 5.70003H8.28249L8.35999 5.44753Z" fill="white"/>
</g>
<defs>
<clipPath id="clip0">
<rect width="16" height="12" fill="white"/>
</clipPath>
</defs>
</svg>
